<svg xmlns="http://www.w3.org/2000/svg" viewBox="0 0 28 30" fill="none"><path fill-rule="evenodd" clip-rule="evenodd" d="M14 0C24.7692 0 28 4.20699 28 13.3785C28 22.5499 24.7692 26.7569 14 26.7569C12.9713 26.7569 12.0113 26.7185 11.1164 26.6411L8.62643 29.5656C7.88769 30.4332 6.46154 29.9141 6.46154 28.7774V25.6895C1.63629 23.9182 0 19.9055 0 13.3785C0 4.20699 3.23077 0 14 0Z" fill="#9179EE"></path><path d="M9.54322 11.1345L9.50256 11.157L9.46675 11.1866C9.19017 11.4154 8.77557 12.0434 9.13875 12.8197C9.44137 13.4665 10.1157 14.7874 11.3005 15.7826C12.4592 16.756 13.6965 17.2795 14.5092 17.4509L14.5603 17.4617H14.6069C14.6091 17.4619 14.614 17.4624 14.6219 17.4636C14.6412 17.4663 14.6645 17.4703 14.7012 17.4767L14.7874 16.9842L14.7012 17.4767C14.7075 17.4778 14.714 17.479 14.7208 17.4802C14.9709 17.5244 15.5704 17.6304 16.0729 17.1297C16.3954 16.8083 16.6898 16.4732 16.8165 16.3225C16.9055 16.2413 17.1956 16.0731 17.5626 16.1972C18.2576 16.4321 19.0839 16.9621 19.4833 17.2308C19.7925 17.439 20.4924 17.9404 20.8079 18.1682L20.8082 18.1684C20.8344 18.1873 20.8959 18.2493 20.9291 18.3354C20.9557 18.4042 20.97 18.4988 20.9061 18.6357C20.7875 18.8895 20.4266 19.374 19.9378 19.7978C19.4401 20.2294 18.9222 20.5 18.5072 20.5C18.5087 20.5 18.5072 20.4998 18.5025 20.4992C18.484 20.4967 18.4153 20.4874 18.2792 20.4568C18.1262 20.4225 17.9195 20.3686 17.6669 20.2926C17.1622 20.1407 16.485 19.904 15.7029 19.5675C14.1375 18.8941 12.1668 17.8277 10.3218 16.2572C9.1613 15.2694 8.06637 13.9036 7.2138 12.6251C6.35407 11.3358 5.77896 10.1932 5.62244 9.66548L5.61148 9.62855L5.595 9.59373C5.55603 9.51141 5.50112 9.33551 5.50002 9.13603C5.49895 8.94333 5.54725 8.75923 5.67465 8.60657C6.09467 8.10322 6.53938 7.60859 7.52049 7.13395C7.61188 7.08974 7.75504 7.05076 7.89575 7.04849C8.04002 7.04617 8.11519 7.082 8.14524 7.10835C8.52063 7.43751 9.1025 8.01857 9.49455 8.51513C9.69707 8.77164 9.94183 9.09749 10.1458 9.38064C10.2478 9.52223 10.3377 9.65062 10.4062 9.75272C10.4405 9.80388 10.4679 9.84616 10.4881 9.87884C10.5019 9.90122 10.5093 9.91428 10.5124 9.9199C10.5141 9.92556 10.5218 9.94984 10.5286 9.99394C10.5371 10.0494 10.5411 10.1177 10.5354 10.1891C10.5235 10.3351 10.4755 10.4524 10.3892 10.5315C10.0962 10.7998 9.699 11.0482 9.54322 11.1345ZM14.2766 5.51613C14.2769 5.51585 14.2772 5.51557 14.2775 5.51527C14.2847 5.50852 14.2994 5.5 14.3226 5.5C18.3145 5.5 21.4984 8.53785 21.5 12.223C21.4994 12.2239 21.4983 12.2251 21.4967 12.2267C21.4895 12.2334 21.4747 12.2419 21.4516 12.2419C21.4285 12.2419 21.4137 12.2334 21.4065 12.2267C21.4049 12.2251 21.4039 12.2239 21.4032 12.223C21.4016 8.49946 18.2032 5.53226 14.3226 5.53226C14.2994 5.53226 14.2847 5.52374 14.2775 5.51699C14.2772 5.51669 14.2769 5.5164 14.2766 5.51613ZM14.2775 9.64602C14.2772 9.64572 14.2769 9.64544 14.2766 9.64516C14.2769 9.64489 14.2772 9.6446 14.2775 9.6443C14.2847 9.63755 14.2994 9.62903 14.3226 9.62903C15.8916 9.62903 17.1113 10.8182 17.1129 12.223C17.1123 12.2239 17.1112 12.2251 17.1096 12.2267C17.1024 12.2334 17.0877 12.2419 17.0645 12.2419C17.0414 12.2419 17.0266 12.2334 17.0194 12.2267C17.0178 12.2251 17.0168 12.2239 17.0161 12.223C17.0145 10.7799 15.7803 9.66129 14.3226 9.66129C14.2994 9.66129 14.2847 9.65277 14.2775 9.64602ZM14.2775 7.5815C14.2772 7.58121 14.2769 7.58092 14.2766 7.58065C14.2769 7.58037 14.2772 7.58008 14.2775 7.57979C14.2847 7.57304 14.2994 7.56452 14.3226 7.56452C17.1031 7.56452 19.3048 9.67803 19.3065 12.223C19.3058 12.2239 19.3048 12.2251 19.3032 12.2267C19.296 12.2334 19.2812 12.2419 19.2581 12.2419C19.2349 12.2419 19.2201 12.2334 19.213 12.2267C19.2114 12.2251 19.2103 12.2239 19.2097 12.223C19.2081 9.63967 16.9917 7.59677 14.3226 7.59677C14.2994 7.59677 14.2847 7.58825 14.2775 7.5815Z" fill="white" stroke="white" stroke-linecap="round"></path></svg>