<svg width="25" height="24" viewBox="0 0 25 24" fill="none" xmlns="http://www.w3.org/2000/svg">
<path fill-rule="evenodd" clip-rule="evenodd" d="M7.6166 19.8203C8.0386 19.8203 8.3816 20.1633 8.3816 20.5853C8.3816 21.0073 8.0386 21.3493 7.6166 21.3493C7.1946 21.3493 6.8526 21.0073 6.8526 20.5853C6.8526 20.1633 7.1946 19.8203 7.6166 19.8203Z" stroke="#222222" stroke-width="1.5" stroke-linecap="round" stroke-linejoin="round"/>
<path fill-rule="evenodd" clip-rule="evenodd" d="M18.869 19.8203C19.291 19.8203 19.634 20.1633 19.634 20.5853C19.634 21.0073 19.291 21.3493 18.869 21.3493C18.447 21.3493 18.104 21.0073 18.104 20.5853C18.104 20.1633 18.447 19.8203 18.869 19.8203Z" stroke="#222222" stroke-width="1.5" stroke-linecap="round" stroke-linejoin="round"/>
<path d="M2.94421 3.25L5.02421 3.61L5.98721 15.083C6.06521 16.018 6.84621 16.736 7.78421 16.736H18.6962C19.5922 16.736 20.3522 16.078 20.4812 15.19L21.4302 8.632C21.5472 7.823 20.9202 7.099 20.1032 7.099H5.35821" stroke="#222222" stroke-width="1.5" stroke-linecap="round" stroke-linejoin="round"/>
<path d="M14.3197 10.7969H17.0927" stroke="#222222" stroke-width="1.5" stroke-linecap="round" stroke-linejoin="round"/>
</svg>
