<svg height="32" viewBox="0 0 32 32" width="32" xmlns="http://www.w3.org/2000/svg"><path d="m15.198.005c-2.568.031-8.089.453-11.177 3.286-2.297 2.276-3.099 5.641-3.193 9.802-.078 4.146-.172 11.932 7.333 14.052v3.229s-.047 1.292.807 1.557c1.052.333 1.651-.661 2.651-1.729l1.865-2.109c5.135.427 9.068-.557 9.521-.703 1.042-.333 6.911-1.083 7.87-8.87.984-8.042-.479-13.109-3.12-15.401h-.016c-.797-.734-4-3.068-11.156-3.094 0 0-.531-.036-1.385-.021zm.088 2.261c.729-.005 1.172.026 1.172.026 6.057.016 8.948 1.839 9.63 2.453 2.224 1.906 3.37 6.474 2.531 13.188-.797 6.51-5.557 6.922-6.438 7.203-.375.12-3.839.974-8.203.693 0 0-3.25 3.922-4.266 4.932-.161.177-.349.229-.469.203-.172-.042-.224-.255-.214-.547l.031-5.359c-6.365-1.76-5.99-8.401-5.922-11.87.078-3.469.729-6.307 2.667-8.229 2.609-2.359 7.297-2.677 9.479-2.693zm.48 3.468c-.219-.005-.401.177-.401.396 0 .224.182.401.401.401 2.005-.036 3.938.724 5.375 2.12 1.453 1.411 2.161 3.307 2.188 5.786 0 .219.177.401.401.401v-.016c.219 0 .401-.177.401-.396.099-2.359-.776-4.651-2.417-6.349-1.583-1.547-3.589-2.344-5.948-2.344zm-5.271.917c-.281-.042-.573.016-.818.161h-.021c-.542.318-1.047.719-1.526 1.255-.365.422-.563.849-.615 1.26-.031.245-.01.49.063.724l.026.016c.411 1.208.948 2.37 1.604 3.464.844 1.536 1.885 2.958 3.094 4.229l.036.052.057.042.036.042.042.036c1.276 1.214 2.698 2.255 4.24 3.109 1.76.958 2.828 1.411 3.469 1.599v.01c.188.057.359.083.531.083.547-.042 1.063-.26 1.469-.63.521-.469.932-.984 1.24-1.531v-.01c.307-.578.203-1.125-.24-1.495-.885-.776-1.849-1.464-2.865-2.057-.682-.37-1.375-.146-1.656.229l-.599.755c-.307.375-.865.323-.865.323l-.016.01c-4.161-1.063-5.271-5.276-5.271-5.276s-.052-.573.333-.865l.75-.604c.359-.292.609-.984.224-1.667-.589-1.021-1.276-1.979-2.052-2.865-.167-.208-.406-.349-.672-.401zm5.963 1.188c-.531 0-.531.802.005.802 1.333.021 2.604.573 3.531 1.531.844.932 1.281 2.172 1.198 3.427.005.219.182.396.401.396l.016.021c.219 0 .401-.182.401-.401.036-1.589-.458-2.922-1.427-3.99-.974-1.068-2.333-1.667-4.068-1.786-.021 0-.036 0-.057 0zm.657 2.156c-.547-.016-.568.802-.026.818 1.318.068 1.958.734 2.042 2.104.005.219.182.391.396.391h.016c.224-.01.401-.203.385-.427-.094-1.786-1.068-2.792-2.797-2.885-.005 0-.01 0-.016 0z"/></svg>